<svg id="_155" data-name="155" xmlns="http://www.w3.org/2000/svg" width="16.482" height="18.045" viewBox="0 0 16.482 18.045">
  <path id="Shape" d="M14.229,18.045H6.11a2.256,2.256,0,0,1-2.253-2.253v-.561h-1.6A2.256,2.256,0,0,1,0,12.977V2.253A2.256,2.256,0,0,1,2.253,0h8.119a2.256,2.256,0,0,1,2.253,2.253v.561h1.6a2.255,2.255,0,0,1,2.253,2.253V15.792A2.256,2.256,0,0,1,14.229,18.045ZM4.5,15.231v.561A1.617,1.617,0,0,0,6.11,17.407h8.119a1.617,1.617,0,0,0,1.615-1.615V5.068a1.617,1.617,0,0,0-1.615-1.615h-1.6v9.525a2.256,2.256,0,0,1-2.253,2.253ZM2.253.638A1.617,1.617,0,0,0,.639,2.253V12.977a1.617,1.617,0,0,0,1.615,1.615h8.119a1.617,1.617,0,0,0,1.615-1.615V2.253A1.617,1.617,0,0,0,10.372.638Z" transform="translate(0)"/>
  <path id="Shape-2" data-name="Shape" d="M6.456,0H.319a.319.319,0,1,0,0,.638H6.456a.319.319,0,1,0,0-.638Z" transform="translate(2.925 7.296)"/>
  <path id="Shape-3" data-name="Shape" d="M6.456,0H.319a.319.319,0,1,0,0,.638H6.456a.319.319,0,1,0,0-.638Z" transform="translate(2.925 4.169)"/>
  <path id="Shape-4" data-name="Shape" d="M6.456,0H.319a.319.319,0,1,0,0,.638H6.456a.319.319,0,1,0,0-.638Z" transform="translate(2.925 10.423)"/>
</svg>
