<svg xmlns="http://www.w3.org/2000/svg" width="18" height="18.409" viewBox="0 0 18 18.409">
  <path id="_47" data-name="47" d="M9,18.409a1.509,1.509,0,0,1-.682-.152L.709,14.292A1.408,1.408,0,0,1,0,13.12V4.694a.029.029,0,0,0,0-.005.027.027,0,0,1,0,0,.645.645,0,0,1,.4-.563L8.318.141a1.721,1.721,0,0,1,1.364,0L17.6,4.122a.645.645,0,0,1,.4.563.064.064,0,0,1,0,.009A.076.076,0,0,0,18,4.7V13.12a1.408,1.408,0,0,1-.709,1.172L9.682,18.257A1.5,1.5,0,0,1,9,18.409ZM.655,5.375v7.745a.776.776,0,0,0,.355.588l7.609,3.965c.013.006.026.012.041.017l.014.006V9.343a1.374,1.374,0,0,1-.355-.115L.655,5.375Zm16.691,0L9.682,9.228a1.366,1.366,0,0,1-.355.115V17.7l.011,0a.35.35,0,0,0,.044-.019l7.608-3.964a.776.776,0,0,0,.355-.589V5.375ZM9,.657a.923.923,0,0,0-.39.072L.742,4.685,8.61,8.641a1.1,1.1,0,0,0,.78,0l7.868-3.956L9.39.729A.923.923,0,0,0,9,.657Z" transform="translate(0 0)"/>
</svg>
