<svg id="_132" data-name="132" xmlns="http://www.w3.org/2000/svg" width="18.045" height="18.045" viewBox="0 0 18.045 18.045">
  <path id="Shape" d="M3.7,4.99H1.286A1.287,1.287,0,0,1,0,3.7V1.286A1.288,1.288,0,0,1,1.286,0H3.7A1.288,1.288,0,0,1,4.99,1.286V3.7A1.287,1.287,0,0,1,3.7,4.99ZM1.286.638a.649.649,0,0,0-.648.648V3.7a.648.648,0,0,0,.648.647H3.7A.648.648,0,0,0,4.351,3.7V1.286A.648.648,0,0,0,3.7.638Z" transform="translate(0 0)"/>
  <path id="Shape-2" data-name="Shape" d="M3.7,4.99H1.286A1.287,1.287,0,0,1,0,3.7V1.286A1.288,1.288,0,0,1,1.286,0H3.7A1.288,1.288,0,0,1,4.99,1.286V3.7A1.287,1.287,0,0,1,3.7,4.99ZM1.286.638a.648.648,0,0,0-.648.648V3.7a.648.648,0,0,0,.648.647H3.7A.648.648,0,0,0,4.352,3.7V1.286A.649.649,0,0,0,3.7.638Z" transform="translate(13.055 0)"/>
  <path id="Shape-3" data-name="Shape" d="M3.7,4.99H1.286A1.287,1.287,0,0,1,0,3.7V1.286A1.288,1.288,0,0,1,1.286,0H3.7A1.288,1.288,0,0,1,4.99,1.286V3.7A1.287,1.287,0,0,1,3.7,4.99ZM1.286.638a.649.649,0,0,0-.648.648V3.7a.648.648,0,0,0,.648.647H3.7A.648.648,0,0,0,4.351,3.7V1.286A.649.649,0,0,0,3.7.638Z" transform="translate(6.528 0)"/>
  <path id="Shape-4" data-name="Shape" d="M3.7,4.99H1.286A1.288,1.288,0,0,1,0,3.7V1.286A1.288,1.288,0,0,1,1.286,0H3.7A1.288,1.288,0,0,1,4.99,1.286V3.7A1.287,1.287,0,0,1,3.7,4.99ZM1.286.639a.648.648,0,0,0-.648.647V3.7a.649.649,0,0,0,.648.648H3.7A.648.648,0,0,0,4.351,3.7V1.286A.648.648,0,0,0,3.7.639Z" transform="translate(0 13.055)"/>
  <path id="Shape-5" data-name="Shape" d="M3.7,4.99H1.286A1.288,1.288,0,0,1,0,3.7V1.286A1.288,1.288,0,0,1,1.286,0H3.7A1.288,1.288,0,0,1,4.99,1.286V3.7A1.288,1.288,0,0,1,3.7,4.99ZM1.286.639a.648.648,0,0,0-.648.647V3.7a.648.648,0,0,0,.648.648H3.7A.649.649,0,0,0,4.352,3.7V1.286A.648.648,0,0,0,3.7.639Z" transform="translate(13.055 13.055)"/>
  <path id="Shape-6" data-name="Shape" d="M3.7,4.99H1.286A1.288,1.288,0,0,1,0,3.7V1.286A1.288,1.288,0,0,1,1.286,0H3.7A1.288,1.288,0,0,1,4.99,1.286V3.7A1.288,1.288,0,0,1,3.7,4.99ZM1.286.639a.648.648,0,0,0-.648.647V3.7a.649.649,0,0,0,.648.648H3.7A.649.649,0,0,0,4.351,3.7V1.286A.648.648,0,0,0,3.7.639Z" transform="translate(6.528 13.055)"/>
  <path id="Shape-7" data-name="Shape" d="M3.7,4.99H1.286A1.288,1.288,0,0,1,0,3.7V1.286A1.288,1.288,0,0,1,1.286,0H3.7A1.288,1.288,0,0,1,4.99,1.286V3.7A1.288,1.288,0,0,1,3.7,4.99ZM1.286.638a.649.649,0,0,0-.648.648V3.7a.649.649,0,0,0,.648.648H3.7A.648.648,0,0,0,4.351,3.7V1.286A.648.648,0,0,0,3.7.638Z" transform="translate(0 6.528)"/>
  <path id="Shape-8" data-name="Shape" d="M3.7,4.99H1.286A1.288,1.288,0,0,1,0,3.7V1.286A1.288,1.288,0,0,1,1.286,0H3.7A1.288,1.288,0,0,1,4.99,1.286V3.7A1.288,1.288,0,0,1,3.7,4.99ZM1.286.638a.648.648,0,0,0-.648.648V3.7a.648.648,0,0,0,.648.648H3.7A.649.649,0,0,0,4.352,3.7V1.286A.649.649,0,0,0,3.7.638Z" transform="translate(13.055 6.528)"/>
  <path id="Shape-9" data-name="Shape" d="M3.7,4.99H1.286A1.288,1.288,0,0,1,0,3.7V1.286A1.288,1.288,0,0,1,1.286,0H3.7A1.288,1.288,0,0,1,4.99,1.286V3.7A1.288,1.288,0,0,1,3.7,4.99ZM1.286.638a.649.649,0,0,0-.648.648V3.7a.649.649,0,0,0,.648.648H3.7A.649.649,0,0,0,4.351,3.7V1.286A.649.649,0,0,0,3.7.638Z" transform="translate(6.528 6.528)"/>
</svg>
