<svg xmlns="http://www.w3.org/2000/svg" width="19" height="19" viewBox="0 0 19 19">
  <path id="_92" data-name="92" d="M15.1,19H3.9a.336.336,0,0,1,0-.672H5.694L7,14.418H2.373A2.375,2.375,0,0,1,0,12.045V2.373A2.375,2.375,0,0,1,2.373,0H16.627A2.375,2.375,0,0,1,19,2.373v9.673a2.375,2.375,0,0,1-2.372,2.372H12l1.3,3.91H15.1a.336.336,0,1,1,0,.672ZM7.706,14.418l-1.3,3.91h6.2l-1.3-3.91H7.706ZM2.373.672a1.7,1.7,0,0,0-1.7,1.7v9.673a1.7,1.7,0,0,0,1.7,1.7H16.627a1.7,1.7,0,0,0,1.7-1.7V2.373a1.7,1.7,0,0,0-1.7-1.7Z"/>
</svg>
