<svg xmlns="http://www.w3.org/2000/svg" width="19" height="18" viewBox="0 0 19 18">
  <path id="_142" data-name="142" d="M5.377,18H4.46a2.166,2.166,0,0,1-2.169-2.158V11.615H2.169A2.166,2.166,0,0,1,0,9.456V7.632A2.167,2.167,0,0,1,2.169,5.473h2.75c1.658,0,3.153-1.233,4.736-2.539C11.4,1.492,13.212,0,15.457,0,17.444,0,19,3.753,19,8.545s-1.556,8.544-3.543,8.544c-2.242,0-4.049-1.489-5.8-2.929l-.006-.005a23.7,23.7,0,0,0-2.11-1.614v3.3A2.166,2.166,0,0,1,5.377,18ZM2.963,11.615v4.227a1.5,1.5,0,0,0,1.5,1.49h.917a1.5,1.5,0,0,0,1.5-1.49V12.149a4.24,4.24,0,0,0-1.955-.535ZM15.457.669c-1.386,0-2.871,3.165-2.871,7.876s1.484,7.875,2.871,7.875,2.871-3.164,2.871-7.875S16.843.669,15.457.669ZM2.169,6.142a1.5,1.5,0,0,0-1.5,1.49V9.456a1.5,1.5,0,0,0,1.5,1.49h2.75c1.9,0,3.559,1.368,5.164,2.692A13.984,13.984,0,0,0,13.77,16.09c-1.146-1.463-1.857-4.355-1.857-7.546S12.625,2.461,13.77,1A14.018,14.018,0,0,0,10.083,3.45C8.477,4.773,6.818,6.142,4.918,6.142Z"/>
</svg>
