<svg xmlns="http://www.w3.org/2000/svg" width="19.527" height="17.957" viewBox="0 0 19.527 17.957">
  <g id="_134" data-name="134" transform="translate(0 -0.618)">
    <path id="Shape" d="M2.962,5.923A2.961,2.961,0,1,1,5.923,2.961,2.942,2.942,0,0,1,2.962,5.923Zm0-5.232a2.271,2.271,0,1,0,2.27,2.271A2.273,2.273,0,0,0,2.962.691Z" transform="translate(0.523 0.618)"/>
    <path id="Shape-2" data-name="Shape" d="M2.962,5.923A2.961,2.961,0,1,1,5.923,2.961,2.965,2.965,0,0,1,2.962,5.923Zm0-5.232a2.271,2.271,0,1,0,2.27,2.271A2.273,2.273,0,0,0,2.962.691Z" transform="translate(7.848 0.618)"/>
    <path id="Shape-3" data-name="Shape" d="M11.856,10.109H2.438A2.441,2.441,0,0,1,0,7.67V2.438A2.441,2.441,0,0,1,2.438,0h9.418a2.441,2.441,0,0,1,2.438,2.438v.437l2.914-1.749A1.945,1.945,0,0,1,18.2.816a1.244,1.244,0,0,1,.622.16,1.576,1.576,0,0,1,.7,1.462V7.671a1.577,1.577,0,0,1-.7,1.462,1.247,1.247,0,0,1-.622.16,1.943,1.943,0,0,1-.994-.31L14.294,7.234V7.67A2.441,2.441,0,0,1,11.856,10.109ZM2.438.691A1.75,1.75,0,0,0,.691,2.438V7.671A1.75,1.75,0,0,0,2.438,9.418h9.418A1.749,1.749,0,0,0,13.6,7.671V2.438A1.749,1.749,0,0,0,11.856.691ZM18.2,1.509a1.289,1.289,0,0,0-.639.209L14.295,3.68V6.429l3.269,1.962A1.289,1.289,0,0,0,18.2,8.6a.563.563,0,0,0,.281-.068.948.948,0,0,0,.352-.861V2.438a.948.948,0,0,0-.352-.861A.563.563,0,0,0,18.2,1.509Z" transform="translate(0 8.466)"/>
  </g>
</svg>
