<svg xmlns="http://www.w3.org/2000/svg" width="19.712" height="19.169" viewBox="0 0 19.712 19.169">
  <g id="_85" data-name="85" transform="translate(0 -0.24)">
    <path id="Shape" d="M17.251,19.169H2.461A2.464,2.464,0,0,1,0,16.708V2.461A2.464,2.464,0,0,1,2.461,0H17.251a2.464,2.464,0,0,1,2.461,2.461V16.708A2.464,2.464,0,0,1,17.251,19.169Zm-1.342-3.8v3.106H17.25a1.766,1.766,0,0,0,1.764-1.764V15.366Zm-3.8,0v3.106h3.106V15.366Zm-3.8,0v3.106h3.106V15.366Zm-3.8,0v3.106H7.606V15.366Zm-3.8,0v1.342a1.766,1.766,0,0,0,1.764,1.764H3.8V15.366ZM.7,4.5V14.669H19.015V4.5H.7ZM2.462.7A1.766,1.766,0,0,0,.7,2.461V3.8H3.8V.7ZM15.909.7V3.8h3.106V2.461A1.766,1.766,0,0,0,17.25.7Zm-3.8,0V3.8h3.106V.7ZM8.3.7V3.8h3.106V.7ZM4.5.7V3.8H7.606V.7Z" transform="translate(0 0.24)"/>
    <path id="Shape-2" data-name="Shape" d="M.942,6.679C.473,6.679,0,6.332,0,5.558V1.121C0,.347.473,0,.942,0a1.312,1.312,0,0,1,.673.207L5.252,2.389a1.136,1.136,0,0,1,.617.951,1.138,1.138,0,0,1-.617.952L1.615,6.473A1.315,1.315,0,0,1,.942,6.679ZM.942.7C.729.7.7.963.7,1.121V5.558c0,.158.032.424.244.424a.628.628,0,0,0,.315-.107L4.893,3.693c.177-.106.279-.235.279-.353s-.1-.247-.279-.353L1.256.8A.628.628,0,0,0,.942.7Z" transform="translate(7.606 6.485)"/>
  </g>
</svg>
