<svg xmlns="http://www.w3.org/2000/svg" width="18" height="18" viewBox="0 0 18 18">
  <g id="Group_58" data-name="Group 58" transform="translate(-27 -397)">
    <path id="_19" data-name="19" d="M7.478,0H.322A.311.311,0,0,0,0,.3.311.311,0,0,0,.322.6H7.478A.311.311,0,0,0,7.8.3.311.311,0,0,0,7.478,0Z" transform="translate(32.2 408.6)"/>
    <path id="_18" data-name="18" d="M7.478,0H.322A.311.311,0,0,0,0,.3.311.311,0,0,0,.322.6H7.478A.311.311,0,0,0,7.8.3.311.311,0,0,0,7.478,0Z" transform="translate(32.2 405.8)"/>
    <path id="_17" data-name="17" d="M6.771,4H1.229A1.189,1.189,0,0,1,0,2.858V1.142A1.189,1.189,0,0,1,1.229,0H6.771A1.189,1.189,0,0,1,8,1.142V2.858A1.189,1.189,0,0,1,6.771,4ZM1.229.566a.6.6,0,0,0-.619.575V2.858a.6.6,0,0,0,.619.575H6.772a.6.6,0,0,0,.619-.575V1.142A.6.6,0,0,0,6.771.566Z" transform="translate(32 404)"/>
    <path id="_16" data-name="16" d="M15.752,18H2.248A2.25,2.25,0,0,1,0,15.752V2.248A2.25,2.25,0,0,1,2.248,0h9.646a2.25,2.25,0,0,1,2.247,2.248v3.54h1.611A2.25,2.25,0,0,1,18,8.035v7.717A2.25,2.25,0,0,1,15.752,18ZM14.141,6.425v9.328a1.611,1.611,0,0,0,3.222,0V8.036a1.613,1.613,0,0,0-1.611-1.611ZM2.248.637A1.613,1.613,0,0,0,.637,2.248v13.5a1.613,1.613,0,0,0,1.611,1.611H14.187a2.231,2.231,0,0,1-.682-1.611V2.248A1.613,1.613,0,0,0,11.894.637Z" transform="translate(27 397)"/>
  </g>
</svg>
