<svg xmlns="http://www.w3.org/2000/svg" width="17.302" height="18.031" viewBox="0 0 17.302 18.031">
  <g id="_161" data-name="161" transform="translate(-0.819)">
    <path id="Shape" d="M4.668,9.335A4.667,4.667,0,1,1,9.335,4.668,4.673,4.673,0,0,1,4.668,9.335Zm0-8.7A4.029,4.029,0,1,0,8.7,4.668,4.034,4.034,0,0,0,4.668.638Z" transform="translate(4.803 0)"/>
    <path id="Shape-2" data-name="Shape" d="M15.222,6.919H2.08A2.046,2.046,0,0,1,0,4.87C0,3.515,1.554,0,8.651,0S17.3,3.515,17.3,4.87A2.046,2.046,0,0,1,15.222,6.919ZM8.651.638C2.11.638.638,3.772.638,4.87A1.4,1.4,0,0,0,2.08,6.281H15.222A1.4,1.4,0,0,0,16.664,4.87C16.664,3.772,15.192.638,8.651.638Z" transform="translate(0.819 11.112)"/>
  </g>
</svg>
